<svg width="205" height="45" viewBox="0 0 205 45" fill="none" xmlns="http://www.w3.org/2000/svg">
<path d="M13.062 14.451L13.23 16.131C9.324 16.593 5.187 16.719 0.945 16.761L0.609 14.976C2.205 14.976 3.927 14.976 5.649 14.934V13.191C3.591 12.876 2.226 11.679 2.226 10.125C2.226 8.256 4.116 6.954 6.762 6.954C9.45 6.954 11.34 8.256 11.34 10.125C11.34 11.721 9.912 12.918 7.791 13.212V14.85C9.702 14.766 11.676 14.64 13.062 14.451ZM16.275 0.947999V19.659H14.112V0.947999H16.275ZM12.243 6.282H1.26V4.602H12.243V6.282ZM9.135 10.125C9.135 9.243 8.148 8.634 6.762 8.634C5.439 8.634 4.431 9.243 4.431 10.125C4.431 10.986 5.439 11.595 6.762 11.595C8.148 11.595 9.135 10.986 9.135 10.125ZM4.032 3.594V1.872H9.471V3.594H4.032ZM29.2369 4.854C29.2369 6.891 27.3049 8.256 24.5959 8.256C21.9079 8.256 19.9129 6.912 19.9129 4.812C19.9129 2.817 21.9079 1.368 24.5959 1.368C27.3049 1.368 29.2369 2.817 29.2369 4.854ZM28.6489 13.38V11.805H32.3029V0.947999H34.4449V15.375H32.3029V13.38H28.6489ZM34.7809 19.176H21.2359V13.674H23.3779V17.454H34.7809V19.176ZM26.2549 14.43H24.0919V11.028C22.3489 11.112 20.6269 11.154 18.8839 11.175L18.5899 9.39C20.7109 9.39 22.7479 9.369 24.8059 9.285C27.3259 9.201 29.2999 9.054 30.9589 8.865L31.1059 10.461C29.5099 10.65 27.8719 10.797 26.2549 10.902V14.43ZM27.1159 4.854C27.1159 3.867 26.1499 3.027 24.5959 3.027C23.0419 3.027 22.0549 3.867 22.0549 4.854C22.0549 5.82 23.0419 6.618 24.5959 6.618C26.1499 6.618 27.1159 5.82 27.1159 4.854ZM54.2738 10.041H51.5018V19.659H49.3388V0.947999H51.5018V8.256H54.2738V10.041ZM46.5878 2.922C46.4408 8.718 43.6058 13.191 38.2088 16.152L36.8648 14.514C41.1698 12.54 43.9208 8.613 44.2778 4.686H37.9568V2.922H46.5878ZM70.5538 19.428H58.3318V11.973H60.4948V13.926H68.4118V11.931H70.5538V19.428ZM68.4118 17.685V15.648H60.4948V17.685H68.4118ZM70.5328 10.944H68.3908V0.947999H70.5328V10.944ZM65.2408 6.219C65.2408 8.844 63.1828 10.461 60.4528 10.461C57.7438 10.461 55.6648 8.844 55.6648 6.219C55.6648 3.657 57.7438 1.788 60.4528 1.788C63.1828 1.788 65.2408 3.594 65.2408 6.219ZM63.0988 6.177C63.0988 4.539 61.9648 3.573 60.4528 3.573C58.9618 3.573 57.8278 4.581 57.8278 6.177C57.8278 7.752 58.9828 8.676 60.4528 8.676C61.9228 8.676 63.0988 7.752 63.0988 6.177ZM90.2147 10.566H73.3097V8.844H90.2147V10.566ZM88.6607 19.533H75.4727V14.913H85.8047V13.611H75.3677V11.91H87.9677V16.488H77.6147V17.832H88.6607V19.533ZM81.7937 1.053C85.9307 1.053 88.3037 2.397 88.3037 4.392C88.3037 6.366 85.9307 7.71 81.7937 7.71C77.6777 7.71 75.3257 6.366 75.3257 4.392C75.3257 2.397 77.6777 1.053 81.7937 1.053ZM81.7937 2.712C79.0847 2.712 77.5097 3.363 77.5097 4.392C77.5097 5.379 79.0847 6.03 81.7937 6.03C84.5027 6.03 86.0987 5.379 86.0987 4.392C86.0987 3.363 84.5027 2.712 81.7937 2.712ZM107.685 5.652C107.685 7.71 105.774 9.495 102.96 9.495C100.146 9.495 98.2982 7.71 98.2982 5.652C98.2982 3.573 100.146 1.788 102.96 1.788C105.837 1.788 107.685 3.573 107.685 5.652ZM112.494 0.947999V19.659H110.352V0.947999H112.494ZM104.178 19.113H102.015V12.708C100.167 12.792 98.5082 12.834 97.0172 12.834L96.6812 11.049C98.8652 11.049 100.965 11.049 103.107 10.944C105.69 10.839 107.706 10.713 109.428 10.524L109.596 12.162C108.168 12.351 106.11 12.498 104.178 12.582V19.113ZM105.543 5.652C105.543 4.434 104.493 3.531 102.96 3.531C101.469 3.531 100.461 4.434 100.461 5.652C100.461 6.87 101.469 7.71 102.96 7.71C104.535 7.71 105.543 6.87 105.543 5.652ZM130.937 19.659H128.879V10.356H127.031V18.777H124.994V1.326H127.031V8.571H128.879V0.947999H130.937V19.659ZM123.776 11.784C123.776 13.968 122.138 15.417 119.744 15.417C117.35 15.417 115.712 13.842 115.712 11.784C115.712 9.537 117.35 8.109 119.744 8.109C122.138 8.109 123.776 9.579 123.776 11.784ZM114.998 7.185V5.4H124.301V7.185H114.998ZM121.802 11.784C121.802 10.608 120.941 9.831 119.744 9.831C118.547 9.831 117.686 10.608 117.686 11.784C117.686 12.918 118.547 13.695 119.744 13.695C120.941 13.695 121.802 12.876 121.802 11.784ZM117.203 4.14V2.334H122.264V4.14H117.203ZM10.353 31.429C10.353 34.075 8.211 35.734 5.544 35.734C2.919 35.734 0.756 34.075 0.756 31.429C0.756 28.846 2.898 26.998 5.544 26.998C8.19 26.998 10.353 28.804 10.353 31.429ZM17.913 32.584V34.327H15.162V36.91H12.999V25.948H15.162V28.321H17.913V30.085H15.162V32.584H17.913ZM2.982 37.876H15.183V44.68H13.02V39.577H2.982V37.876ZM8.232 31.408C8.232 29.938 7.224 28.783 5.544 28.783C3.927 28.783 2.856 29.959 2.856 31.408C2.856 32.983 3.948 34.096 5.544 34.096C7.14 34.096 8.232 32.941 8.232 31.408ZM36.1669 33.424H33.4789V39.892H31.3369V25.948H33.4789V31.639H36.1669V33.424ZM34.0669 44.176H21.3619V38.695H23.5249V42.454H34.0669V44.176ZM30.2239 35.041L30.4129 36.658C26.8639 37.141 22.6639 37.309 18.6319 37.351L18.3169 35.566C19.4089 35.566 20.8159 35.587 22.1809 35.566V31.639H24.3019V35.482H24.3439C26.2339 35.419 28.9009 35.23 30.2239 35.041ZM29.0059 27.313C28.9849 30.127 28.8799 32.332 28.4599 33.928L26.4019 33.613C26.6749 32.479 26.8639 30.652 26.8429 29.056H19.6189V27.313H29.0059ZM52.7198 44.659H50.6618V35.188H48.6668V43.756H46.6508V26.326H48.6668V33.382H50.6618V25.948H52.7198V44.659ZM45.4538 37.33L45.7478 39.073C44.4878 39.388 41.9468 39.64 39.6998 39.661H37.8518V28.174H39.9938V37.876C41.8628 37.876 44.2358 37.687 45.4538 37.33ZM70.0918 29.728C70.0918 30.946 69.3148 31.933 67.8868 32.563V34.978H72.0448V36.7H55.1398V34.978H59.2348V32.521C57.8488 31.891 57.1138 30.925 57.1138 29.728C57.1138 27.649 59.4658 26.2 63.5818 26.2C67.7398 26.2 70.0918 27.649 70.0918 29.728ZM70.0918 41.215C70.0918 43.378 67.6978 44.638 63.6028 44.638C59.5078 44.638 57.1138 43.378 57.1138 41.215C57.1138 39.094 59.5078 37.813 63.5818 37.813C67.6978 37.813 70.0918 39.094 70.0918 41.215ZM67.8658 29.728C67.8658 28.573 66.2698 27.838 63.5818 27.838C60.9148 27.838 59.3188 28.573 59.3188 29.728C59.3188 30.904 60.9148 31.618 63.5818 31.618C66.2068 31.618 67.8658 30.904 67.8658 29.728ZM67.8658 41.236C67.8658 40.144 66.1858 39.514 63.5818 39.514C60.9778 39.514 59.3188 40.144 59.3188 41.236C59.3188 42.349 60.9778 42.916 63.5818 42.916C66.2068 42.916 67.8658 42.349 67.8658 41.236ZM63.6028 33.277C62.8048 33.277 62.0488 33.256 61.3768 33.13V34.978H65.7448V33.151C65.0938 33.256 64.3798 33.277 63.6028 33.277ZM85.4477 43.777H83.4107V34.978H81.5417C81.3527 38.107 80.0927 40.606 77.5517 40.606C74.7587 40.606 73.5197 37.582 73.5197 34.033C73.5197 30.505 74.7587 27.502 77.5517 27.502C80.1137 27.502 81.3737 30.022 81.5417 33.193H83.4107V26.305H85.4477V43.777ZM89.0807 44.659H87.0227V25.948H89.0807V44.659ZM79.5467 34.054C79.5467 31.345 78.9167 29.35 77.5727 29.35C76.2497 29.35 75.5987 31.345 75.5987 34.054C75.5987 36.763 76.2497 38.716 77.5727 38.716C78.9167 38.716 79.5467 36.763 79.5467 34.054ZM111.885 32.857H106.488V34.81H113.901V36.553H96.9962V34.81H104.346V32.857H99.2222V26.452H111.738V28.216H101.385V31.114H111.885V32.857ZM111.948 41.257C111.948 43.357 109.575 44.68 105.459 44.68C101.322 44.68 98.9702 43.357 98.9702 41.257C98.9702 39.199 101.322 37.855 105.438 37.855C109.575 37.855 111.948 39.199 111.948 41.257ZM109.722 41.278C109.722 40.207 108.084 39.577 105.438 39.577C102.813 39.577 101.175 40.207 101.175 41.278C101.175 42.349 102.813 42.937 105.438 42.937C108.084 42.937 109.722 42.349 109.722 41.278ZM125.96 31.891C125.96 34.474 123.818 36.154 121.067 36.154C118.337 36.154 116.279 34.432 116.279 31.891C116.279 29.308 118.358 27.418 121.067 27.418C123.839 27.418 125.96 29.266 125.96 31.891ZM123.797 31.87C123.797 30.253 122.579 29.266 121.067 29.266C119.618 29.266 118.379 30.316 118.379 31.87C118.379 33.361 119.639 34.327 121.067 34.327C122.537 34.327 123.797 33.361 123.797 31.87ZM130.811 25.948V44.659H128.669V25.948H130.811ZM127.619 38.149L127.787 39.871C123.776 40.312 119.744 40.501 115.355 40.522L115.019 38.674C117.014 38.695 119.051 38.695 121.235 38.569C123.902 38.464 126.002 38.317 127.619 38.149ZM149.107 44.659H147.049V35.356H145.201V43.777H143.164V26.326H145.201V33.571H147.049V25.948H149.107V44.659ZM141.946 36.784C141.946 38.968 140.308 40.417 137.914 40.417C135.52 40.417 133.882 38.842 133.882 36.784C133.882 34.537 135.52 33.109 137.914 33.109C140.308 33.109 141.946 34.579 141.946 36.784ZM133.168 32.185V30.4H142.471V32.185H133.168ZM139.972 36.784C139.972 35.608 139.111 34.831 137.914 34.831C136.717 34.831 135.856 35.608 135.856 36.784C135.856 37.918 136.717 38.695 137.914 38.695C139.111 38.695 139.972 37.876 139.972 36.784ZM135.373 29.14V27.334H140.434V29.14H135.373ZM166.836 28.447H161.145C161.523 30.757 164.82 32.458 167.613 32.752L166.647 34.453C164.022 34.075 160.914 32.311 159.969 30.589C159.066 32.416 156.042 34.117 153.291 34.537L152.262 32.836C155.139 32.542 158.457 30.778 158.835 28.447H153.06V26.704H166.836V28.447ZM160.998 44.638H158.856V37.981H151.506V36.259H168.411V37.981H160.998V44.638ZM185.447 44.659H183.389V25.948H185.447V44.659ZM181.751 43.777H179.735V34.264H177.047V32.479H179.735V26.326H181.751V43.777ZM179.147 38.527L177.908 40.018C176.585 39.178 174.905 37.204 174.359 35.251C173.897 37.288 172.406 39.367 170.6 40.501L169.298 39.031C171.566 37.54 173.309 34.579 173.309 30.736V27.796H175.388V30.715C175.388 34.285 176.963 37.183 179.147 38.527ZM203.092 32.017C203.092 34.852 200.404 36.826 196.288 36.826C192.235 36.826 189.526 34.852 189.526 32.017C189.526 29.203 192.235 27.208 196.288 27.208C200.404 27.208 203.092 29.203 203.092 32.017ZM200.887 32.017C200.887 30.211 199.081 28.993 196.288 28.993C193.537 28.993 191.71 30.211 191.71 32.017C191.71 33.823 193.537 35.041 196.288 35.041C199.06 35.041 200.887 33.823 200.887 32.017ZM204.751 42.286H187.846V40.564H191.752V37.309L193.936 37.288V40.564H198.598V37.288L200.761 37.309V40.564H204.751V42.286Z" fill="black"/>
</svg>
