<svg width="41" height="49" viewBox="0 0 41 49" fill="none" xmlns="http://www.w3.org/2000/svg">
<path d="M8.89209 1.16399H34.2378V16.2577H8.89209V1.16399Z" fill="#6100FF"/>
<path d="M9.23431 16.2577H34.58L38.6866 29.6362H3.41667L9.23431 16.2577Z" fill="#6100FF"/>
<path d="M9.42062 1.37592L3.9452 15.0975M34.7831 1L38.8897 14.7215M3.98611 14.1995V29.2932M38.9138 14.1995V29.2932M8.89209 1.16399H34.2378V16.2577H8.89209V1.16399ZM9.23431 16.2577H34.58L38.6866 29.6362H3.41667L9.23431 16.2577Z" stroke="#A5A5A5" stroke-width="1.5"/>
<path d="M10.3023 45.2819C10.0623 45.2819 9.83133 45.2519 9.60933 45.1919C9.38733 45.1259 9.18333 45.0359 8.99733 44.9219C8.81133 44.8019 8.64933 44.6579 8.51133 44.4899L9.14133 43.8599C9.29133 44.0339 9.46233 44.1659 9.65433 44.2559C9.85233 44.3399 10.0743 44.3819 10.3203 44.3819C10.5423 44.3819 10.7103 44.3489 10.8243 44.2829C10.9383 44.2169 10.9953 44.1209 10.9953 43.9949C10.9953 43.8629 10.9413 43.7609 10.8333 43.6889C10.7253 43.6169 10.5843 43.5569 10.4103 43.5089C10.2423 43.4549 10.0623 43.4009 9.87033 43.3469C9.68433 43.2929 9.50433 43.2209 9.33033 43.1309C9.16233 43.0349 9.02433 42.9059 8.91633 42.7439C8.80833 42.5819 8.75433 42.3719 8.75433 42.1139C8.75433 41.8379 8.81733 41.6009 8.94333 41.4029C9.07533 41.2049 9.25833 41.0519 9.49233 40.9439C9.73233 40.8359 10.0173 40.7819 10.3473 40.7819C10.6953 40.7819 11.0013 40.8449 11.2653 40.9709C11.5353 41.0909 11.7603 41.2739 11.9403 41.5199L11.3103 42.1499C11.1843 41.9939 11.0403 41.8769 10.8783 41.7989C10.7163 41.7209 10.5303 41.6819 10.3203 41.6819C10.1223 41.6819 9.96933 41.7119 9.86133 41.7719C9.75333 41.8319 9.69933 41.9189 9.69933 42.0329C9.69933 42.1529 9.75333 42.2459 9.86133 42.3119C9.96933 42.3779 10.1073 42.4349 10.2753 42.4829C10.4493 42.5309 10.6293 42.5849 10.8153 42.6449C11.0073 42.6989 11.1873 42.7769 11.3553 42.8789C11.5293 42.9749 11.6703 43.1069 11.7783 43.2749C11.8863 43.4369 11.9403 43.6499 11.9403 43.9139C11.9403 44.3339 11.7933 44.6669 11.4993 44.9129C11.2053 45.1589 10.8063 45.2819 10.3023 45.2819ZM13.4135 45.1919V39.0719H14.4035V45.1919H13.4135ZM12.3785 41.7719V40.8719H15.4385V41.7719H12.3785ZM17.9309 45.2819C17.5649 45.2819 17.2379 45.2009 16.9499 45.0389C16.6679 44.8769 16.4459 44.6549 16.2839 44.3729C16.1279 44.0849 16.0499 43.7549 16.0499 43.3829V40.8719H17.0399V43.3379C17.0399 43.5479 17.0729 43.7279 17.1389 43.8779C17.2109 44.0219 17.3129 44.1329 17.4449 44.2109C17.5829 44.2889 17.7449 44.3279 17.9309 44.3279C18.2189 44.3279 18.4379 44.2439 18.5879 44.0759C18.7439 43.9019 18.8219 43.6559 18.8219 43.3379V40.8719H19.8119V43.3829C19.8119 43.7609 19.7309 44.0939 19.5689 44.3819C19.4129 44.6639 19.1939 44.8859 18.9119 45.0479C18.6299 45.2039 18.3029 45.2819 17.9309 45.2819ZM22.6163 45.2819C22.2263 45.2819 21.8723 45.1829 21.5543 44.9849C21.2423 44.7869 20.9933 44.5199 20.8073 44.1839C20.6273 43.8419 20.5373 43.4609 20.5373 43.0409C20.5373 42.6149 20.6273 42.2339 20.8073 41.8979C20.9933 41.5559 21.2423 41.2859 21.5543 41.0879C21.8723 40.8839 22.2263 40.7819 22.6163 40.7819C22.9463 40.7819 23.2373 40.8539 23.4893 40.9979C23.7473 41.1359 23.9513 41.3279 24.1013 41.5739C24.2513 41.8199 24.3263 42.0989 24.3263 42.4109V43.6529C24.3263 43.9649 24.2513 44.2439 24.1013 44.4899C23.9573 44.7359 23.7563 44.9309 23.4983 45.0749C23.2403 45.2129 22.9463 45.2819 22.6163 45.2819ZM22.7783 44.3459C23.0243 44.3459 23.2373 44.2919 23.4173 44.1839C23.6033 44.0699 23.7473 43.9139 23.8493 43.7159C23.9513 43.5179 24.0023 43.2899 24.0023 43.0319C24.0023 42.7739 23.9513 42.5459 23.8493 42.3479C23.7473 42.1499 23.6033 41.9969 23.4173 41.8889C23.2373 41.7749 23.0243 41.7179 22.7783 41.7179C22.5383 41.7179 22.3253 41.7749 22.1393 41.8889C21.9593 41.9969 21.8153 42.1499 21.7073 42.3479C21.6053 42.5459 21.5543 42.7739 21.5543 43.0319C21.5543 43.2899 21.6053 43.5179 21.7073 43.7159C21.8153 43.9139 21.9593 44.0699 22.1393 44.1839C22.3253 44.2919 22.5383 44.3459 22.7783 44.3459ZM24.9293 45.1919H23.9393V44.0309L24.1103 42.9779L23.9393 41.9339V38.7119H24.9293V45.1919ZM26.037 45.1919V40.8719H27.027V45.1919H26.037ZM26.532 40.0799C26.364 40.0799 26.223 40.0229 26.109 39.9089C26.001 39.7949 25.947 39.6539 25.947 39.4859C25.947 39.3179 26.001 39.1769 26.109 39.0629C26.223 38.9489 26.364 38.8919 26.532 38.8919C26.706 38.8919 26.847 38.9489 26.955 39.0629C27.063 39.1769 27.117 39.3179 27.117 39.4859C27.117 39.6539 27.063 39.7949 26.955 39.9089C26.847 40.0229 26.706 40.0799 26.532 40.0799ZM30.1174 45.2819C29.6974 45.2819 29.3164 45.1829 28.9744 44.9849C28.6324 44.7809 28.3594 44.5079 28.1554 44.1659C27.9574 43.8239 27.8584 43.4429 27.8584 43.0229C27.8584 42.6029 27.9574 42.2249 28.1554 41.8889C28.3594 41.5529 28.6324 41.2859 28.9744 41.0879C29.3164 40.8839 29.6974 40.7819 30.1174 40.7819C30.5434 40.7819 30.9274 40.8809 31.2694 41.0789C31.6114 41.2769 31.8814 41.5469 32.0794 41.8889C32.2834 42.2249 32.3854 42.6029 32.3854 43.0229C32.3854 43.4429 32.2834 43.8239 32.0794 44.1659C31.8814 44.5079 31.6114 44.7809 31.2694 44.9849C30.9274 45.1829 30.5434 45.2819 30.1174 45.2819ZM30.1174 44.3279C30.3634 44.3279 30.5794 44.2739 30.7654 44.1659C30.9574 44.0519 31.1044 43.8959 31.2064 43.6979C31.3144 43.4999 31.3684 43.2749 31.3684 43.0229C31.3684 42.7709 31.3144 42.5489 31.2064 42.3569C31.0984 42.1649 30.9514 42.0149 30.7654 41.9069C30.5794 41.7929 30.3634 41.7359 30.1174 41.7359C29.8774 41.7359 29.6614 41.7929 29.4694 41.9069C29.2834 42.0149 29.1364 42.1649 29.0284 42.3569C28.9264 42.5489 28.8754 42.7709 28.8754 43.0229C28.8754 43.2749 28.9264 43.4999 29.0284 43.6979C29.1364 43.8959 29.2834 44.0519 29.4694 44.1659C29.6614 44.2739 29.8774 44.3279 30.1174 44.3279Z" fill="#6100FF"/>
</svg>
