<?xml version="1.0" encoding="UTF-8"?>
<svg id="_레이어_2" data-name="레이어 2" xmlns="http://www.w3.org/2000/svg" viewBox="0 0 290.56 339.83">
  <defs>
    <style>
      .cls-1 {
        fill: #fff;
        stroke: #6100ff;
        stroke-miterlimit: 10;
        stroke-width: 9px;
      }

      .cls-2 {
        fill: #6100ff;
        stroke-width: 0px;
      }
    </style>
  </defs>
  <g id="_레이어_1-2" data-name="레이어 1">
    <g>
      <path class="cls-1" d="m106.79,47.17s-4.59-40.64,37.36-42.61c41.95-1.97,39.21,42.61,39.21,42.61"/>
      <path class="cls-1" d="m285.31,286.31l-34.97-44.47h-.07s22.36-204.5-105.46-203.19c-127.82,1.31-104.22,203.19-104.22,203.19l-35.43,44.58c-1.62,2.16-.06,5.23,2.66,5.23h274.93c2.79,0,4.33-3.2,2.57-5.35Z"/>
      <path class="cls-2" d="m178.58,206.44c-13.79,0-26,7.2-33.49,18.26-7.48-11.24-19.78-18.58-33.71-18.58-22.8,0-41.42,19.67-41.29,43.93.3,54.51,75.04,89.78,75.04,89.78,0,0,74.74-35.27,74.74-89.46,0-24.26-18.48-43.93-41.29-43.93Z"/>
    </g>
  </g>
</svg>