<svg width="307" height="91" viewBox="0 0 307 91" fill="none" xmlns="http://www.w3.org/2000/svg">
<path d="M64.8759 46.864C67.0679 46.864 68.6839 47.344 69.7239 48.304C70.7799 49.248 71.3079 50.568 71.3079 52.264C71.3079 53.032 71.1959 53.768 70.9719 54.472C70.7479 55.16 70.3719 55.776 69.8439 56.32C69.3319 56.864 68.6519 57.296 67.8039 57.616C66.9719 57.936 65.9399 58.096 64.7079 58.096H63.2679V64H59.1879V46.864H64.8759ZM64.7319 50.2H63.2679V54.76H64.3479C64.9079 54.76 65.3959 54.68 65.8119 54.52C66.2439 54.36 66.5799 54.104 66.8199 53.752C67.0599 53.4 67.1799 52.944 67.1799 52.384C67.1799 51.68 66.9799 51.144 66.5799 50.776C66.1799 50.392 65.5639 50.2 64.7319 50.2ZM88.5371 57.592C88.5371 58.904 88.2731 60.064 87.7451 61.072C87.2171 62.064 86.4171 62.84 85.3451 63.4C84.2731 63.96 82.9211 64.24 81.2891 64.24C78.9851 64.24 77.2251 63.648 76.0091 62.464C74.7931 61.28 74.1851 59.664 74.1851 57.616V46.864H78.2891V57.16C78.2891 58.472 78.5451 59.408 79.0571 59.968C79.5851 60.528 80.3611 60.808 81.3851 60.808C82.1051 60.808 82.6891 60.68 83.1371 60.424C83.5851 60.168 83.9131 59.768 84.1211 59.224C84.3451 58.68 84.4571 57.984 84.4571 57.136V46.864H88.5371V57.592ZM97.7257 46.864C99.2777 46.864 100.558 47.056 101.566 47.44C102.59 47.808 103.358 48.376 103.87 49.144C104.382 49.896 104.638 50.84 104.638 51.976C104.638 52.712 104.502 53.368 104.23 53.944C103.958 54.52 103.59 55.024 103.126 55.456C102.678 55.888 102.158 56.248 101.566 56.536L106.582 64H101.998L98.1337 57.568H96.5257V64H92.4457V46.864H97.7257ZM97.5577 50.08H96.5257V54.376H97.5577C98.2137 54.376 98.7577 54.304 99.1897 54.16C99.6217 54 99.9417 53.752 100.15 53.416C100.374 53.064 100.486 52.632 100.486 52.12C100.486 51.656 100.382 51.28 100.174 50.992C99.9657 50.688 99.6457 50.464 99.2137 50.32C98.7817 50.16 98.2297 50.08 97.5577 50.08ZM114.165 46.864C116.357 46.864 117.973 47.344 119.013 48.304C120.069 49.248 120.597 50.568 120.597 52.264C120.597 53.032 120.485 53.768 120.261 54.472C120.037 55.16 119.661 55.776 119.133 56.32C118.621 56.864 117.941 57.296 117.093 57.616C116.261 57.936 115.229 58.096 113.997 58.096H112.557V64H108.477V46.864H114.165ZM114.021 50.2H112.557V54.76H113.637C114.197 54.76 114.685 54.68 115.101 54.52C115.533 54.36 115.869 54.104 116.109 53.752C116.349 53.4 116.469 52.944 116.469 52.384C116.469 51.68 116.269 51.144 115.869 50.776C115.469 50.392 114.853 50.2 114.021 50.2ZM123.594 64V46.864H127.674V60.664H134.466V64H123.594ZM147.36 64H137.352V46.864H147.36V50.176H141.432V53.464H146.928V56.776H141.432V60.64H147.36V64ZM162.587 46.864C164.779 46.864 166.395 47.344 167.435 48.304C168.491 49.248 169.019 50.568 169.019 52.264C169.019 53.032 168.907 53.768 168.683 54.472C168.459 55.16 168.083 55.776 167.555 56.32C167.043 56.864 166.363 57.296 165.515 57.616C164.683 57.936 163.651 58.096 162.419 58.096H160.979V64H156.899V46.864H162.587ZM162.443 50.2H160.979V54.76H162.059C162.619 54.76 163.107 54.68 163.523 54.52C163.955 54.36 164.291 54.104 164.531 53.752C164.771 53.4 164.891 52.944 164.891 52.384C164.891 51.68 164.691 51.144 164.291 50.776C163.891 50.392 163.275 50.2 162.443 50.2ZM179.12 64H170.792V61.672L172.904 60.784V50.08L170.792 49.192V46.864H179.12V49.192L177.008 50.08V60.784L179.12 61.672V64ZM181.93 64V46.864H186.01V60.664H192.802V64H181.93ZM195.688 64V46.864H199.768V60.664H206.56V64H195.688ZM224.745 55.408C224.745 56.736 224.585 57.944 224.265 59.032C223.945 60.104 223.449 61.032 222.777 61.816C222.105 62.6 221.249 63.2 220.209 63.616C219.169 64.032 217.937 64.24 216.513 64.24C215.105 64.24 213.881 64.032 212.841 63.616C211.801 63.184 210.945 62.584 210.273 61.816C209.601 61.032 209.097 60.096 208.761 59.008C208.441 57.92 208.281 56.712 208.281 55.384C208.281 53.608 208.569 52.064 209.145 50.752C209.737 49.44 210.641 48.424 211.857 47.704C213.089 46.968 214.649 46.6 216.537 46.6C218.441 46.6 219.993 46.968 221.193 47.704C222.409 48.424 223.305 49.448 223.881 50.776C224.457 52.088 224.745 53.632 224.745 55.408ZM212.577 55.408C212.577 56.528 212.713 57.496 212.985 58.312C213.257 59.112 213.681 59.728 214.257 60.16C214.849 60.592 215.601 60.808 216.513 60.808C217.457 60.808 218.217 60.592 218.793 60.16C219.369 59.728 219.785 59.112 220.041 58.312C220.313 57.496 220.449 56.528 220.449 55.408C220.449 53.712 220.145 52.384 219.537 51.424C218.945 50.464 217.945 49.984 216.537 49.984C215.609 49.984 214.849 50.208 214.257 50.656C213.681 51.088 213.257 51.712 212.985 52.528C212.713 53.328 212.577 54.288 212.577 55.408ZM249.66 46.864L245.364 64H240.612L238.62 55.72C238.572 55.544 238.516 55.288 238.452 54.952C238.388 54.6 238.308 54.216 238.212 53.8C238.132 53.368 238.06 52.96 237.996 52.576C237.932 52.176 237.884 51.856 237.852 51.616C237.82 51.856 237.764 52.176 237.684 52.576C237.62 52.96 237.548 53.368 237.468 53.8C237.388 54.216 237.308 54.6 237.228 54.952C237.164 55.288 237.108 55.544 237.06 55.72L235.044 64H230.316L225.996 46.864H229.98L232.02 55.864C232.084 56.104 232.156 56.424 232.236 56.824C232.316 57.208 232.396 57.624 232.476 58.072C232.556 58.504 232.628 58.928 232.692 59.344C232.772 59.744 232.828 60.088 232.86 60.376C232.908 59.992 232.972 59.552 233.052 59.056C233.148 58.56 233.244 58.056 233.34 57.544C233.436 57.032 233.532 56.552 233.628 56.104C233.724 55.656 233.812 55.296 233.892 55.024L235.932 46.864H239.748L241.788 55.024C241.836 55.296 241.908 55.656 242.004 56.104C242.116 56.552 242.22 57.04 242.316 57.568C242.428 58.08 242.524 58.584 242.604 59.08C242.684 59.576 242.748 60.008 242.796 60.376C242.844 59.976 242.916 59.496 243.012 58.936C243.124 58.36 243.236 57.792 243.348 57.232C243.46 56.656 243.556 56.208 243.636 55.888L245.676 46.864H249.66Z" fill="#5803E0"/>
<path d="M84.7353 74.432L81.8673 83H79.5513L76.6953 74.432H78.8913L80.2833 79.184C80.3233 79.304 80.3713 79.488 80.4273 79.736C80.4833 79.976 80.5393 80.228 80.5953 80.492C80.6593 80.748 80.6993 80.96 80.7153 81.128C80.7393 80.96 80.7753 80.748 80.8233 80.492C80.8793 80.236 80.9353 79.988 80.9913 79.748C81.0473 79.5 81.0953 79.316 81.1353 79.196L82.5513 74.432H84.7353ZM87.6264 76.412V83H85.6104V76.412H87.6264ZM86.6304 73.796C86.9184 73.796 87.1704 73.86 87.3864 73.988C87.6024 74.116 87.7104 74.364 87.7104 74.732C87.7104 75.092 87.6024 75.34 87.3864 75.476C87.1704 75.604 86.9184 75.668 86.6304 75.668C86.3264 75.668 86.0664 75.604 85.8504 75.476C85.6424 75.34 85.5384 75.092 85.5384 74.732C85.5384 74.364 85.6424 74.116 85.8504 73.988C86.0664 73.86 86.3264 73.796 86.6304 73.796ZM93.1998 76.292C93.3038 76.292 93.4198 76.3 93.5478 76.316C93.6758 76.324 93.7758 76.336 93.8478 76.352L93.6798 78.248C93.6078 78.232 93.5158 78.22 93.4038 78.212C93.2918 78.196 93.1678 78.188 93.0318 78.188C92.8398 78.188 92.6478 78.212 92.4558 78.26C92.2638 78.3 92.0878 78.376 91.9278 78.488C91.7678 78.592 91.6398 78.744 91.5438 78.944C91.4478 79.136 91.3998 79.388 91.3998 79.7V83H89.3718V76.412H90.8958L91.2078 77.492H91.2918C91.4198 77.268 91.5798 77.068 91.7718 76.892C91.9638 76.708 92.1798 76.564 92.4198 76.46C92.6678 76.348 92.9278 76.292 93.1998 76.292ZM97.8911 81.512C98.0991 81.512 98.2911 81.492 98.4671 81.452C98.6431 81.412 98.8231 81.36 99.0071 81.296V82.784C98.7911 82.88 98.5431 82.96 98.2631 83.024C97.9831 83.088 97.6511 83.12 97.2671 83.12C96.8591 83.12 96.4951 83.056 96.1751 82.928C95.8631 82.792 95.6151 82.564 95.4311 82.244C95.2551 81.916 95.1671 81.464 95.1671 80.888V77.924H94.3271V77.084L95.3351 76.436L95.8871 75.044H97.1831V76.412H98.9351V77.924H97.1831V80.816C97.1831 81.048 97.2471 81.224 97.3751 81.344C97.5031 81.456 97.6751 81.512 97.8911 81.512ZM106.487 76.412V83H104.951L104.687 82.16H104.567C104.431 82.384 104.255 82.568 104.039 82.712C103.831 82.848 103.599 82.948 103.343 83.012C103.095 83.084 102.835 83.12 102.563 83.12C102.115 83.12 101.715 83.036 101.363 82.868C101.011 82.7 100.735 82.44 100.535 82.088C100.335 81.728 100.235 81.268 100.235 80.708V76.412H102.263V80.144C102.263 80.592 102.335 80.932 102.479 81.164C102.631 81.396 102.871 81.512 103.199 81.512C103.527 81.512 103.783 81.432 103.967 81.272C104.151 81.112 104.279 80.876 104.351 80.564C104.423 80.244 104.459 79.86 104.459 79.412V76.412H106.487ZM111.168 76.28C112.024 76.28 112.688 76.48 113.16 76.88C113.632 77.272 113.868 77.856 113.868 78.632V83H112.464L112.068 82.112H112.02C111.836 82.344 111.644 82.536 111.444 82.688C111.252 82.84 111.028 82.948 110.772 83.012C110.524 83.084 110.216 83.12 109.848 83.12C109.464 83.12 109.116 83.044 108.804 82.892C108.5 82.74 108.26 82.508 108.084 82.196C107.908 81.884 107.82 81.488 107.82 81.008C107.82 80.304 108.064 79.784 108.552 79.448C109.048 79.112 109.772 78.924 110.724 78.884L111.852 78.848V78.656C111.852 78.336 111.768 78.104 111.6 77.96C111.44 77.816 111.216 77.744 110.928 77.744C110.64 77.744 110.34 77.792 110.028 77.888C109.716 77.976 109.4 78.088 109.08 78.224L108.468 76.88C108.828 76.688 109.236 76.54 109.692 76.436C110.148 76.332 110.64 76.28 111.168 76.28ZM111.24 80.024C110.736 80.04 110.384 80.132 110.184 80.3C109.984 80.46 109.884 80.68 109.884 80.96C109.884 81.208 109.956 81.388 110.1 81.5C110.244 81.612 110.428 81.668 110.652 81.668C110.988 81.668 111.272 81.568 111.504 81.368C111.736 81.16 111.852 80.88 111.852 80.528V80L111.24 80.024ZM117.603 83H115.575V73.88H117.603V83ZM121.365 76.412V83H119.349V76.412H121.365ZM120.369 73.796C120.657 73.796 120.909 73.86 121.125 73.988C121.341 74.116 121.449 74.364 121.449 74.732C121.449 75.092 121.341 75.34 121.125 75.476C120.909 75.604 120.657 75.668 120.369 75.668C120.065 75.668 119.805 75.604 119.589 75.476C119.381 75.34 119.277 75.092 119.277 74.732C119.277 74.364 119.381 74.116 119.589 73.988C119.805 73.86 120.065 73.796 120.369 73.796ZM127.874 83H122.558V81.824L125.462 77.96H122.726V76.412H127.754V77.684L124.958 81.452H127.874V83ZM131.919 76.292C132.543 76.292 133.079 76.408 133.527 76.64C133.983 76.864 134.331 77.2 134.571 77.648C134.819 78.088 134.943 78.636 134.943 79.292V80.228H130.779C130.795 80.66 130.935 81.004 131.199 81.26C131.463 81.516 131.839 81.644 132.327 81.644C132.751 81.644 133.135 81.604 133.479 81.524C133.823 81.444 134.179 81.316 134.547 81.14V82.64C134.227 82.808 133.883 82.928 133.515 83C133.147 83.08 132.695 83.12 132.159 83.12C131.495 83.12 130.903 83 130.383 82.76C129.871 82.52 129.467 82.152 129.171 81.656C128.883 81.152 128.739 80.516 128.739 79.748C128.739 78.964 128.871 78.32 129.135 77.816C129.399 77.304 129.771 76.924 130.251 76.676C130.731 76.42 131.287 76.292 131.919 76.292ZM131.955 77.696C131.643 77.696 131.383 77.796 131.175 77.996C130.975 78.188 130.855 78.496 130.815 78.92H133.083C133.083 78.688 133.039 78.48 132.951 78.296C132.871 78.112 132.747 77.968 132.579 77.864C132.411 77.752 132.203 77.696 131.955 77.696ZM138.559 76.412H140.719L141.907 80.144C141.939 80.24 141.963 80.34 141.979 80.444C142.003 80.54 142.023 80.644 142.039 80.756C142.055 80.86 142.067 80.972 142.075 81.092H142.111C142.135 80.908 142.163 80.74 142.195 80.588C142.235 80.428 142.275 80.284 142.315 80.156L143.503 76.412H145.615L142.903 83.648C142.727 84.136 142.503 84.544 142.231 84.872C141.967 85.208 141.647 85.46 141.271 85.628C140.903 85.796 140.471 85.88 139.975 85.88C139.775 85.88 139.599 85.868 139.447 85.844C139.295 85.828 139.163 85.808 139.051 85.784V84.188C139.139 84.204 139.243 84.22 139.363 84.236C139.491 84.252 139.623 84.26 139.759 84.26C140.015 84.26 140.227 84.208 140.395 84.104C140.563 84 140.703 83.86 140.815 83.684C140.927 83.516 141.019 83.332 141.091 83.132L141.163 82.928L138.559 76.412ZM152.609 79.688C152.609 80.24 152.533 80.728 152.381 81.152C152.237 81.576 152.021 81.936 151.733 82.232C151.453 82.528 151.113 82.752 150.713 82.904C150.321 83.048 149.869 83.12 149.357 83.12C148.893 83.12 148.461 83.048 148.061 82.904C147.669 82.752 147.329 82.532 147.041 82.244C146.761 81.948 146.541 81.588 146.381 81.164C146.221 80.732 146.141 80.24 146.141 79.688C146.141 78.96 146.269 78.344 146.525 77.84C146.789 77.336 147.165 76.952 147.653 76.688C148.141 76.424 148.721 76.292 149.393 76.292C150.025 76.292 150.581 76.424 151.061 76.688C151.541 76.952 151.917 77.336 152.189 77.84C152.469 78.344 152.609 78.96 152.609 79.688ZM148.193 79.688C148.193 80.096 148.233 80.44 148.313 80.72C148.393 81 148.521 81.212 148.697 81.356C148.873 81.492 149.101 81.56 149.381 81.56C149.669 81.56 149.897 81.492 150.065 81.356C150.233 81.212 150.357 81 150.437 80.72C150.517 80.44 150.557 80.096 150.557 79.688C150.557 79.28 150.517 78.94 150.437 78.668C150.357 78.396 150.229 78.192 150.053 78.056C149.885 77.92 149.657 77.852 149.369 77.852C148.961 77.852 148.661 78.008 148.469 78.32C148.285 78.624 148.193 79.08 148.193 79.688ZM160.229 76.412V83H158.693L158.429 82.16H158.309C158.173 82.384 157.997 82.568 157.781 82.712C157.573 82.848 157.341 82.948 157.085 83.012C156.837 83.084 156.577 83.12 156.305 83.12C155.857 83.12 155.457 83.036 155.105 82.868C154.753 82.7 154.477 82.44 154.277 82.088C154.077 81.728 153.977 81.268 153.977 80.708V76.412H156.005V80.144C156.005 80.592 156.077 80.932 156.221 81.164C156.373 81.396 156.613 81.512 156.941 81.512C157.269 81.512 157.525 81.432 157.709 81.272C157.893 81.112 158.021 80.876 158.093 80.564C158.165 80.244 158.201 79.86 158.201 79.412V76.412H160.229ZM165.786 76.292C165.89 76.292 166.006 76.3 166.134 76.316C166.262 76.324 166.362 76.336 166.434 76.352L166.266 78.248C166.194 78.232 166.102 78.22 165.99 78.212C165.878 78.196 165.754 78.188 165.618 78.188C165.426 78.188 165.234 78.212 165.042 78.26C164.85 78.3 164.674 78.376 164.514 78.488C164.354 78.592 164.226 78.744 164.13 78.944C164.034 79.136 163.986 79.388 163.986 79.7V83H161.958V76.412H163.482L163.794 77.492H163.878C164.006 77.268 164.166 77.068 164.358 76.892C164.55 76.708 164.766 76.564 165.006 76.46C165.254 76.348 165.514 76.292 165.786 76.292ZM176.738 79.688C176.738 80.24 176.662 80.728 176.51 81.152C176.366 81.576 176.15 81.936 175.862 82.232C175.582 82.528 175.242 82.752 174.842 82.904C174.45 83.048 173.998 83.12 173.486 83.12C173.022 83.12 172.59 83.048 172.19 82.904C171.798 82.752 171.458 82.532 171.17 82.244C170.89 81.948 170.67 81.588 170.51 81.164C170.35 80.732 170.27 80.24 170.27 79.688C170.27 78.96 170.398 78.344 170.654 77.84C170.918 77.336 171.294 76.952 171.782 76.688C172.27 76.424 172.85 76.292 173.522 76.292C174.154 76.292 174.71 76.424 175.19 76.688C175.67 76.952 176.046 77.336 176.318 77.84C176.598 78.344 176.738 78.96 176.738 79.688ZM172.322 79.688C172.322 80.096 172.362 80.44 172.442 80.72C172.522 81 172.65 81.212 172.826 81.356C173.002 81.492 173.23 81.56 173.51 81.56C173.798 81.56 174.026 81.492 174.194 81.356C174.362 81.212 174.486 81 174.566 80.72C174.646 80.44 174.686 80.096 174.686 79.688C174.686 79.28 174.646 78.94 174.566 78.668C174.486 78.396 174.358 78.192 174.182 78.056C174.014 77.92 173.786 77.852 173.498 77.852C173.09 77.852 172.79 78.008 172.598 78.32C172.414 78.624 172.322 79.08 172.322 79.688ZM182.851 80.42C182.819 80.284 182.775 80.1 182.719 79.868C182.671 79.636 182.619 79.392 182.563 79.136C182.515 78.88 182.467 78.648 182.419 78.44C182.379 78.224 182.347 78.064 182.323 77.96H182.275C182.259 78.064 182.227 78.224 182.179 78.44C182.139 78.648 182.091 78.88 182.035 79.136C181.979 79.392 181.923 79.64 181.867 79.88C181.819 80.12 181.779 80.32 181.747 80.48L181.147 83H178.999L177.163 76.412H179.155L179.815 79.148C179.863 79.34 179.907 79.572 179.947 79.844C179.995 80.116 180.035 80.384 180.067 80.648C180.107 80.912 180.135 81.132 180.151 81.308H180.187C180.195 81.18 180.211 81.016 180.235 80.816C180.267 80.616 180.299 80.416 180.331 80.216C180.371 80.008 180.407 79.824 180.439 79.664C180.471 79.504 180.491 79.396 180.499 79.34L181.219 76.412H183.451L184.123 79.352C184.155 79.48 184.191 79.668 184.231 79.916C184.279 80.156 184.323 80.404 184.363 80.66C184.403 80.916 184.427 81.132 184.435 81.308H184.471C184.487 81.14 184.511 80.924 184.543 80.66C184.583 80.388 184.627 80.116 184.675 79.844C184.723 79.564 184.771 79.332 184.819 79.148L185.503 76.412H187.471L185.611 83H183.439L182.851 80.42ZM192.39 76.292C193.086 76.292 193.646 76.484 194.07 76.868C194.502 77.244 194.718 77.856 194.718 78.704V83H192.702V79.268C192.702 78.812 192.626 78.468 192.474 78.236C192.322 78.004 192.082 77.888 191.754 77.888C191.266 77.888 190.934 78.072 190.758 78.44C190.582 78.8 190.494 79.32 190.494 80V83H188.466V76.412H190.002L190.278 77.264H190.374C190.518 77.048 190.69 76.868 190.89 76.724C191.09 76.58 191.318 76.472 191.574 76.4C191.83 76.328 192.102 76.292 192.39 76.292ZM204.28 81.008C204.28 81.44 204.18 81.816 203.98 82.136C203.788 82.448 203.484 82.692 203.068 82.868C202.652 83.036 202.124 83.12 201.484 83.12C201.02 83.12 200.612 83.092 200.26 83.036C199.916 82.98 199.568 82.88 199.216 82.736V81.104C199.6 81.272 200 81.404 200.416 81.5C200.84 81.596 201.192 81.644 201.472 81.644C201.776 81.644 201.996 81.604 202.132 81.524C202.268 81.444 202.336 81.332 202.336 81.188C202.336 81.084 202.3 80.992 202.228 80.912C202.164 80.832 202.028 80.74 201.82 80.636C201.62 80.532 201.32 80.4 200.92 80.24C200.528 80.072 200.204 79.9 199.948 79.724C199.7 79.548 199.512 79.336 199.384 79.088C199.264 78.84 199.204 78.536 199.204 78.176C199.204 77.552 199.444 77.084 199.924 76.772C200.412 76.452 201.056 76.292 201.856 76.292C202.28 76.292 202.68 76.336 203.056 76.424C203.432 76.512 203.82 76.648 204.22 76.832L203.644 78.2C203.428 78.104 203.212 78.02 202.996 77.948C202.788 77.876 202.588 77.82 202.396 77.78C202.204 77.74 202.024 77.72 201.856 77.72C201.632 77.72 201.46 77.752 201.34 77.816C201.22 77.872 201.16 77.96 201.16 78.08C201.16 78.168 201.192 78.252 201.256 78.332C201.328 78.404 201.46 78.484 201.652 78.572C201.852 78.66 202.14 78.784 202.516 78.944C202.892 79.096 203.212 79.256 203.476 79.424C203.74 79.592 203.94 79.8 204.076 80.048C204.212 80.296 204.28 80.616 204.28 81.008ZM209.45 76.292C210.186 76.292 210.774 76.584 211.214 77.168C211.654 77.744 211.874 78.584 211.874 79.688C211.874 80.44 211.766 81.072 211.55 81.584C211.334 82.096 211.038 82.48 210.662 82.736C210.294 82.992 209.87 83.12 209.39 83.12C209.078 83.12 208.81 83.08 208.586 83C208.37 82.92 208.182 82.82 208.022 82.7C207.87 82.572 207.742 82.444 207.638 82.316H207.554C207.578 82.468 207.598 82.628 207.614 82.796C207.63 82.964 207.638 83.144 207.638 83.336V85.88H205.61V76.412H207.254L207.542 77.252H207.638C207.75 77.076 207.886 76.916 208.046 76.772C208.214 76.628 208.414 76.512 208.646 76.424C208.878 76.336 209.146 76.292 209.45 76.292ZM208.742 77.888C208.47 77.888 208.254 77.948 208.094 78.068C207.942 78.188 207.83 78.368 207.758 78.608C207.686 78.84 207.646 79.136 207.638 79.496V79.676C207.638 80.068 207.67 80.4 207.734 80.672C207.806 80.936 207.922 81.14 208.082 81.284C208.25 81.42 208.478 81.488 208.766 81.488C208.998 81.488 209.19 81.424 209.342 81.296C209.502 81.16 209.618 80.956 209.69 80.684C209.77 80.412 209.81 80.072 209.81 79.664C209.81 79.048 209.722 78.6 209.546 78.32C209.37 78.032 209.102 77.888 208.742 77.888ZM216.214 76.28C217.07 76.28 217.734 76.48 218.206 76.88C218.678 77.272 218.914 77.856 218.914 78.632V83H217.51L217.114 82.112H217.066C216.882 82.344 216.69 82.536 216.49 82.688C216.298 82.84 216.074 82.948 215.818 83.012C215.57 83.084 215.262 83.12 214.894 83.12C214.51 83.12 214.162 83.044 213.85 82.892C213.546 82.74 213.306 82.508 213.13 82.196C212.954 81.884 212.866 81.488 212.866 81.008C212.866 80.304 213.11 79.784 213.598 79.448C214.094 79.112 214.818 78.924 215.77 78.884L216.898 78.848V78.656C216.898 78.336 216.814 78.104 216.646 77.96C216.486 77.816 216.262 77.744 215.974 77.744C215.686 77.744 215.386 77.792 215.074 77.888C214.762 77.976 214.446 78.088 214.126 78.224L213.514 76.88C213.874 76.688 214.282 76.54 214.738 76.436C215.194 76.332 215.686 76.28 216.214 76.28ZM216.286 80.024C215.782 80.04 215.43 80.132 215.23 80.3C215.03 80.46 214.93 80.68 214.93 80.96C214.93 81.208 215.002 81.388 215.146 81.5C215.29 81.612 215.474 81.668 215.698 81.668C216.034 81.668 216.318 81.568 216.55 81.368C216.782 81.16 216.898 80.88 216.898 80.528V80L216.286 80.024ZM223.454 83.12C222.798 83.12 222.23 83.004 221.75 82.772C221.278 82.532 220.914 82.164 220.658 81.668C220.41 81.164 220.286 80.52 220.286 79.736C220.286 78.936 220.426 78.284 220.706 77.78C220.994 77.268 221.39 76.892 221.894 76.652C222.398 76.412 222.974 76.292 223.622 76.292C224.054 76.292 224.442 76.336 224.786 76.424C225.138 76.512 225.45 76.624 225.722 76.76L225.134 78.284C224.854 78.172 224.594 78.08 224.354 78.008C224.114 77.936 223.87 77.9 223.622 77.9C223.35 77.9 223.118 77.968 222.926 78.104C222.734 78.232 222.586 78.432 222.482 78.704C222.386 78.976 222.338 79.316 222.338 79.724C222.338 80.132 222.39 80.468 222.494 80.732C222.598 80.988 222.746 81.18 222.938 81.308C223.13 81.436 223.362 81.5 223.634 81.5C223.986 81.5 224.314 81.448 224.618 81.344C224.93 81.24 225.226 81.1 225.506 80.924V82.58C225.234 82.756 224.938 82.892 224.618 82.988C224.298 83.076 223.91 83.12 223.454 83.12ZM229.782 76.292C230.406 76.292 230.942 76.408 231.39 76.64C231.846 76.864 232.194 77.2 232.434 77.648C232.682 78.088 232.806 78.636 232.806 79.292V80.228H228.642C228.658 80.66 228.798 81.004 229.062 81.26C229.326 81.516 229.702 81.644 230.19 81.644C230.614 81.644 230.998 81.604 231.342 81.524C231.686 81.444 232.042 81.316 232.41 81.14V82.64C232.09 82.808 231.746 82.928 231.378 83C231.01 83.08 230.558 83.12 230.022 83.12C229.358 83.12 228.766 83 228.246 82.76C227.734 82.52 227.33 82.152 227.034 81.656C226.746 81.152 226.602 80.516 226.602 79.748C226.602 78.964 226.734 78.32 226.998 77.816C227.262 77.304 227.634 76.924 228.114 76.676C228.594 76.42 229.15 76.292 229.782 76.292ZM229.818 77.696C229.506 77.696 229.246 77.796 229.038 77.996C228.838 78.188 228.718 78.496 228.678 78.92H230.946C230.946 78.688 230.902 78.48 230.814 78.296C230.734 78.112 230.61 77.968 230.442 77.864C230.274 77.752 230.066 77.696 229.818 77.696Z" fill="#5803E0"/>
<g filter="url(#filter0_d_1148_130)">
<path d="M127.138 36.233L154.451 2.38615L181.856 36.233H127.138Z" stroke="#6100FF" stroke-width="3"/>
<path d="M126.166 36.2333L134.331 14.5184L153.184 36.2333H126.166Z" stroke="#6100FF" stroke-width="3"/>
<path d="M182.834 36.2333L174.669 14.5184L155.816 36.2333H182.834Z" stroke="#6100FF" stroke-width="3"/>
<path d="M142.124 36.2331L154.426 21.0912L166.769 36.2331H142.124Z" stroke="#6100FF" stroke-width="3"/>
<line x1="154.812" y1="1.46191" x2="154.812" y2="20.0222" stroke="#6100FF" stroke-width="3"/>
</g>
<defs>
<filter id="filter0_d_1148_130" x="120" y="0" width="69" height="45.7334" filterUnits="userSpaceOnUse" color-interpolation-filters="sRGB">
<feFlood flood-opacity="0" result="BackgroundImageFix"/>
<feColorMatrix in="SourceAlpha" type="matrix" values="0 0 0 0 0 0 0 0 0 0 0 0 0 0 0 0 0 0 127 0" result="hardAlpha"/>
<feOffset dy="4"/>
<feGaussianBlur stdDeviation="2"/>
<feComposite in2="hardAlpha" operator="out"/>
<feColorMatrix type="matrix" values="0 0 0 0 0 0 0 0 0 0 0 0 0 0 0 0 0 0 0.25 0"/>
<feBlend mode="normal" in2="BackgroundImageFix" result="effect1_dropShadow_1148_130"/>
<feBlend mode="normal" in="SourceGraphic" in2="effect1_dropShadow_1148_130" result="shape"/>
</filter>
</defs>
</svg>
